<svg width="60" height="60" viewBox="0 0 60 60" fill="none" xmlns="http://www.w3.org/2000/svg">
<g filter="url(#filter0_d_88_5538)">
<circle cx="29" cy="28" r="20" fill="white"/>
</g>
<path fill-rule="evenodd" clip-rule="evenodd" d="M18.5 28C18.5 27.8011 18.579 27.6103 18.7197 27.4696C18.8603 27.329 19.0511 27.25 19.25 27.25H36.9395L32.219 22.531C32.0782 22.3901 31.9991 22.1991 31.9991 22C31.9991 21.8008 32.0782 21.6098 32.219 21.469C32.3598 21.3281 32.5508 21.249 32.75 21.249C32.9492 21.249 33.1402 21.3281 33.281 21.469L39.281 27.469C39.3508 27.5386 39.4063 27.6214 39.4441 27.7125C39.4819 27.8036 39.5013 27.9013 39.5013 28C39.5013 28.0986 39.4819 28.1963 39.4441 28.2874C39.4063 28.3785 39.3508 28.4613 39.281 28.531L33.281 34.531C33.1402 34.6718 32.9492 34.7509 32.75 34.7509C32.5508 34.7509 32.3598 34.6718 32.219 34.531C32.0782 34.3901 31.9991 34.1991 31.9991 34C31.9991 33.8008 32.0782 33.6098 32.219 33.469L36.9395 28.75H19.25C19.0511 28.75 18.8603 28.671 18.7197 28.5303C18.579 28.3896 18.5 28.1989 18.5 28Z" fill="#BBD147" stroke="#BBD147" stroke-width="0.5"/>
<defs>
<filter id="filter0_d_88_5538" x="0" y="0" width="60" height="60" filterUnits="userSpaceOnUse" color-interpolation-filters="sRGB">
<feFlood flood-opacity="0" result="BackgroundImageFix"/>
<feColorMatrix in="SourceAlpha" type="matrix" values="0 0 0 0 0 0 0 0 0 0 0 0 0 0 0 0 0 0 127 0" result="hardAlpha"/>
<feOffset dx="1" dy="2"/>
<feGaussianBlur stdDeviation="5"/>
<feComposite in2="hardAlpha" operator="out"/>
<feColorMatrix type="matrix" values="0 0 0 0 0 0 0 0 0 0 0 0 0 0 0 0 0 0 0.1 0"/>
<feBlend mode="normal" in2="BackgroundImageFix" result="effect1_dropShadow_88_5538"/>
<feBlend mode="normal" in="SourceGraphic" in2="effect1_dropShadow_88_5538" result="shape"/>
</filter>
</defs>
</svg>
