<svg width="60" height="60" viewBox="0 0 60 60" fill="none" xmlns="http://www.w3.org/2000/svg">
<g filter="url(#filter0_d_88_5543)">
<circle r="20" transform="matrix(-1 0 0 1 29 28)" fill="white"/>
</g>
<path fill-rule="evenodd" clip-rule="evenodd" d="M39.5 28C39.5 27.8011 39.421 27.6103 39.2803 27.4696C39.1397 27.329 38.9489 27.25 38.75 27.25H21.0605L25.781 22.531C25.9218 22.3901 26.0009 22.1991 26.0009 22C26.0009 21.8008 25.9218 21.6098 25.781 21.469C25.6402 21.3281 25.4492 21.249 25.25 21.249C25.0508 21.249 24.8598 21.3281 24.719 21.469L18.719 27.469C18.6492 27.5386 18.5937 27.6214 18.5559 27.7125C18.5181 27.8036 18.4987 27.9013 18.4987 28C18.4987 28.0986 18.5181 28.1963 18.5559 28.2874C18.5937 28.3785 18.6492 28.4613 18.719 28.531L24.719 34.531C24.8598 34.6718 25.0508 34.7509 25.25 34.7509C25.4492 34.7509 25.6402 34.6718 25.781 34.531C25.9218 34.3901 26.0009 34.1991 26.0009 34C26.0009 33.8008 25.9218 33.6098 25.781 33.469L21.0605 28.75H38.75C38.9489 28.75 39.1397 28.671 39.2803 28.5303C39.421 28.3896 39.5 28.1989 39.5 28Z" fill="#BBD147" stroke="#BBD147" stroke-width="0.5"/>
<defs>
<filter id="filter0_d_88_5543" x="0" y="0" width="60" height="60" filterUnits="userSpaceOnUse" color-interpolation-filters="sRGB">
<feFlood flood-opacity="0" result="BackgroundImageFix"/>
<feColorMatrix in="SourceAlpha" type="matrix" values="0 0 0 0 0 0 0 0 0 0 0 0 0 0 0 0 0 0 127 0" result="hardAlpha"/>
<feOffset dx="1" dy="2"/>
<feGaussianBlur stdDeviation="5"/>
<feComposite in2="hardAlpha" operator="out"/>
<feColorMatrix type="matrix" values="0 0 0 0 0 0 0 0 0 0 0 0 0 0 0 0 0 0 0.1 0"/>
<feBlend mode="normal" in2="BackgroundImageFix" result="effect1_dropShadow_88_5543"/>
<feBlend mode="normal" in="SourceGraphic" in2="effect1_dropShadow_88_5543" result="shape"/>
</filter>
</defs>
</svg>
